<?xml version="1.0" encoding="UTF-8"?>
<svg width="350px" height="110px" viewBox="0 0 350 110" version="1.1" xmlns="http://www.w3.org/2000/svg" xmlns:xlink="http://www.w3.org/1999/xlink">
    <!-- Generator: Sketch 59.1 (86144) - https://sketch.com -->
    <title>logo 2</title>
    <desc>Created with Sketch.</desc>
    <defs>
        <polygon id="path-1" points="0 0.6804 146.9118 0.6804 146.9118 56 0 56"></polygon>
        <polygon id="path-3" points="0.0537 0.184 146.9377 0.184 146.9377 25.6229 0.0537 25.6229"></polygon>
        <polygon id="path-5" points="0 110.816 349.296 110.816 349.296 1 0 1"></polygon>
    </defs>
    <g id="Styleguide" stroke="none" stroke-width="1" fill="none" fill-rule="evenodd">
        <g id="Styleguide-1" transform="translate(-97.000000, -112.000000)">
            <g id="logo-2" transform="translate(97.000000, 111.000000)">
                <g id="logo">
                    <path d="M128.7614,36.5137 C124.0384,32.6647 118.6814,29.2737 112.9194,26.4387 L93.5854,40.8557 C96.7614,45.0707 98.6454,50.3107 98.6434,55.9827 C98.6364,69.8637 87.3374,81.1517 73.4574,81.1447 C59.5764,81.1377 48.2884,69.8387 48.2954,55.9577 C48.2984,50.2997 50.1784,45.0737 53.3434,40.8667 L34.0234,26.4117 C28.2684,29.2387 22.9154,32.6207 18.1954,36.4597 C5.5444,46.7467 0.4824,54.6427 0.0274,55.3727 L0.0274,55.4957 C0.5524,56.3567 7.2274,67.0687 19.7584,76.1817 C38.0504,89.4837 53.3754,94.7647 72.9964,94.9317 L72.9964,94.9387 C73.1494,94.9387 73.7514,94.9397 73.9044,94.9397 L73.9044,94.9317 C93.5254,94.7847 108.8554,89.5177 127.1594,76.2337 C140.0404,66.8857 146.7164,55.8477 146.9114,55.5217 L146.9114,55.4917 C146.7184,55.1717 141.7704,47.1127 128.7614,36.5137" id="Fill-1" fill="#FFFFFF"></path>
                    <path d="M18.195,36.46 C22.916,32.621 28.268,29.238 34.023,26.412 L0.053,1 L0.027,55.373 C0.482,54.643 5.545,46.747 18.195,36.46" id="Fill-3" fill="#AFE5DB"></path>
                    <path d="M128.7614,36.5137 C141.7704,47.1127 146.7184,55.1717 146.9114,55.4917 L146.9384,1.0717 L112.9194,26.4387 C118.6814,29.2737 124.0384,32.6647 128.7614,36.5137" id="Fill-5" fill="#AFE5DB"></path>
                    <g id="Group-9" transform="translate(0.000000, 54.816000)">
                        <mask id="mask-2" fill="white">
                            <use xlink:href="#path-1"></use>
                        </mask>
                        <g id="Clip-8"></g>
                        <path d="M127.1598,21.4174 C108.8548,34.7014 93.5248,39.9684 73.9038,40.1154 L73.9038,40.1234 C73.7518,40.1234 73.1488,40.1224 72.9968,40.1224 L72.9968,40.1154 C53.3758,39.9484 38.0508,34.6674 19.7588,21.3654 C7.2268,12.2524 0.5528,1.5404 0.0268,0.6804 L-0.0002,55.9284 L146.8848,56.0004 L146.9118,0.7054 C146.7168,1.0314 140.0408,12.0694 127.1598,21.4174" id="Fill-7" fill="#00CBB0" mask="url(#mask-2)"></path>
                    </g>
                    <g id="Group-12" transform="translate(0.000000, 0.816000)">
                        <mask id="mask-4" fill="white">
                            <use xlink:href="#path-3"></use>
                        </mask>
                        <g id="Clip-11"></g>
                        <path d="M73.3747,16.1879 L73.3747,16.1859 L73.6017,16.1859 L73.6017,16.1879 C87.1137,16.2329 100.8997,19.7089 112.9197,25.6229 L146.9377,0.2549 L0.0537,0.1839 L34.0227,25.5959 C46.0547,19.6859 59.8537,16.2199 73.3747,16.1879" id="Fill-10" fill="#1E354C" mask="url(#mask-4)"></path>
                    </g>
                    <path d="M73.4647,65.3316 C68.2947,65.3296 64.1047,61.1366 64.1077,55.9656 C64.1087,53.8496 64.8187,51.9056 66.0047,50.3376 L53.3437,40.8666 C50.1787,45.0736 48.2987,50.2996 48.2956935,55.9576 C48.2887,69.8386 59.5767,81.1376 73.4577,81.1446065 C87.3377,81.1516 98.6367,69.8636 98.6437008,55.9826 C98.6447,50.3106 96.7617,45.0706 93.5857,40.8556 L80.9107,50.3066 C82.1117,51.8806 82.8317,53.8416 82.8307,55.9746 C82.8287,61.1456 78.6357,65.3346 73.4647,65.3316 Z" id="Fill-13" fill="#F9DAF5"></path>
                    <path d="M73.6012,17.0019 L73.3742,17.0019 L73.3742,17.0039 C59.8532,17.0359 46.0542,20.5019 34.0232,26.4119 L53.3432,40.8659 C57.9442,34.7519 65.2592,30.7929 73.4822,30.7969 C81.6902,30.8009 88.9912,34.7549 93.5852,40.8559 L112.9192,26.4389 C100.9002,20.5239 87.1142,17.0489 73.6012,17.0039 L73.6012,17.0019 Z" id="Fill-15" fill="#00CBB0"></path>
                    <path d="M73.4821,30.796897 C65.2591,30.7929 57.9441,34.7519 53.3431,40.8659 L66.0041,50.3379 C67.7131,48.0749 70.4191,46.6079 73.4731,46.6089 C76.5101,46.6099 79.2021,48.0639 80.9111,50.3069 L93.5861,40.8559 C88.9911,34.7549 81.6901,30.8009 73.4821,30.796897" id="Fill-17" fill="#FF4541"></path>
                    <path d="M80.9108,50.3066 C79.2018,48.0636 76.5108,46.6106 73.4738,46.608598 C70.4198,46.6066 67.7138,48.0756 66.0048,50.3376 C64.8188,51.9056 64.1088,53.8506 64.1077984,55.9656 C64.1048,61.1356 68.2948,65.3286 73.4648,65.3316016 C78.6358,65.3346 82.8288,61.1456 82.830801,55.9756 C82.8318,53.8416 82.1118,51.8816 80.9108,50.3066" id="Fill-19" fill="#1E354C"></path>
                    <path d="M164.0651,66.9873 L164.0581,79.5133 L166.3261,79.514301 C170.1061,79.5163 172.3761,76.4943 172.3771,73.2543 C172.3781,70.0143 170.1131,66.9903 166.3331,66.9883 L164.0651,66.9873 Z M166.8761,60.6523 C175.2271,60.6563 180.0471,66.7073 180.044101,73.2583 C180.0411,79.8093 175.2861,85.8533 166.8631,85.849302 L156.5681,85.8443 L156.5811,60.6473 L166.8761,60.6523 Z" id="Fill-21" fill="#1E354C"></path>
                    <polygon id="Fill-23" fill="#1E354C" points="190.1764 66.2793 190.1744 70.6713 198.9214 70.6753 198.9184 76.0383 190.1714 76.0343 190.1694 80.2463 198.9164 80.2503 198.9134 85.8653 182.6794 85.8573 182.6924 60.6603 198.9264 60.6683 198.9234 66.2833"></polygon>
                    <polygon id="Fill-25" fill="#1E354C" points="207.6725 67.0801 202.4885 67.0771 202.4915 60.6701 220.3455 60.6791 220.3425 67.0861 215.1595 67.0831 215.1505 85.8731 207.6625 85.8701"></polygon>
                    <polygon id="Fill-27" fill="#1E354C" points="231.6481 66.2998 231.6461 70.6918 240.3931 70.6958 240.3901 76.0588 231.6431 76.0548 231.6411 80.2668 240.3881 80.2708 240.3851 85.8858 224.1511 85.8778 224.1641 60.6808 240.3981 60.6888 240.3951 66.3038"></polygon>
                    <path d="M270.5534,75.9658 C269.7224,81.7608 265.0404,86.5808 257.3014,86.5778014 C248.6264,86.5728 243.5184,80.3088 243.522398,73.2888 C243.5254,66.3058 248.6044,60.0088 257.0984,60.0127981 C265.2344,60.0178 269.8034,64.9868 270.4844,71.0698 L262.6374,71.0668 C262.2054,68.6908 260.4074,66.8188 257.3114,66.8178 C253.2804,66.8158 251.1904,69.8728 251.1894,73.2918 C251.1874,76.9638 253.5254,79.7738 257.4494,79.7758 C260.2204,79.7768 262.1644,78.0498 262.6344,75.9618 L270.5534,75.9658 Z" id="Fill-29" fill="#1E354C"></path>
                    <polygon id="Fill-31" fill="#1E354C" points="276.8971 67.1133 271.7131 67.1113 271.7161 60.7043 289.5701 60.7133 289.5671 67.1203 284.3841 67.1173 284.3751 85.9073 276.8871 85.9033"></polygon>
                    <mask id="mask-6" fill="white">
                        <use xlink:href="#path-5"></use>
                    </mask>
                    <g id="Clip-34"></g>
                    <polygon id="Fill-33" fill="#1E354C" mask="url(#mask-6)" points="292.956 85.84 300.516 85.84 300.516 60.643 292.956 60.643"></polygon>
                    <polygon id="Fill-35" fill="#1E354C" mask="url(#mask-6)" points="320.82 85.8398 312.973 85.8398 303.686 60.6428 311.786 60.6428 316.897 77.8848 321.972 60.6428 330.323 60.6428"></polygon>
                    <polygon id="Fill-36" fill="#1E354C" mask="url(#mask-6)" points="340.5485 66.2578 340.5485 70.6498 349.2955 70.6498 349.2955 76.0128 340.5485 76.0128 340.5485 80.2248 349.2955 80.2248 349.2955 85.8398 333.0615 85.8398 333.0615 60.6428 349.2955 60.6428 349.2955 66.2578"></polygon>
                    <path d="M164.0954,40.7783 L164.0934,45.9253 L166.6494,45.9273006 C168.9164,45.9283 169.7084,44.6683 169.709401,43.3373 C169.7104,42.3293 169.1354,40.7813 166.6514,40.7803 L164.0954,40.7783 Z M166.5824,35.8833023 C168.8504,35.8853 169.6424,34.5903 169.643401,33.3303 C169.6444,32.2863 169.1404,30.8103 166.5844,30.8083 L164.1004,30.8073 L164.0984,35.8823 L166.5824,35.8833023 Z M156.5804,25.9793 L168.9264,25.9863 C175.8374,25.9893 177.1314,30.1663 177.1294,32.7943 C177.1284,35.9253 174.6804,38.0113 172.7374,38.4073 C174.3554,38.5503 177.3074,40.4243 177.305401,44.1683 C177.3034,46.7963 175.9694,51.1863 169.0584,51.1833015 L156.5684,51.1763 L156.5804,25.9793 Z" id="Fill-37" fill="#1E354C" mask="url(#mask-6)"></path>
                    <polygon id="Fill-38" fill="#1E354C" mask="url(#mask-6)" points="180.6608 25.9922 188.2208 25.9952 188.2078 51.1922 180.6478 51.1892"></polygon>
                    <polygon id="Fill-39" fill="#1E354C" mask="url(#mask-6)" points="232.568 32.4248 227.384 32.4218 227.387 26.0148 245.241 26.0238 245.238 32.4308 240.055 32.4278 240.047 51.2178 232.559 51.2148"></polygon>
                    <polygon id="Fill-40" fill="#1E354C" mask="url(#mask-6)" points="255.6754 31.6435 255.6734 36.0355 264.4204 36.0395 264.4174 41.4035 255.6704 41.3985 255.6684 45.6105 264.4154 45.6155 264.4124 51.2305 248.1784 51.2215 248.1914 26.0245 264.4254 26.0335 264.4224 31.6485"></polygon>
                    <path d="M294.3629,41.3105 C293.5319,47.1045 288.8499,51.9255 281.1109,51.9215025 C272.4359,51.9175 267.3279,45.6525 267.331898,38.6325 C267.3349,31.6495 272.4139,25.3535 280.9079,25.3574981 C289.0439,25.3615 293.6129,30.3315 294.2939,36.4145 L286.4469,36.4115 C286.0149,34.0345 284.2169,32.1625 281.1209,32.1615 C277.0899,32.1595 274.9999,35.2175 274.9989,38.6365 C274.9969,42.3085 277.3349,45.1175 281.2589,45.1195 C284.0299,45.1205 285.9739,43.3935 286.4439,41.3065 L294.3629,41.3105 Z" id="Fill-41" fill="#1E354C" mask="url(#mask-6)"></path>
                    <polygon id="Fill-42" fill="#1E354C" mask="url(#mask-6)" points="312.1745 41.7783 305.1545 41.7783 305.1545 51.1733 297.6675 51.1733 297.6675 25.9753 305.1545 25.9753 305.1545 35.5503 312.1745 35.5503 312.1745 25.9753 319.6965 25.9753 319.6965 51.1733 312.1745 51.1733"></polygon>
                    <path d="M217.4557,37.1592 L205.5587,37.1532 L205.5557,42.0842 L209.7307,42.0862 C209.3697,44.0662 207.7857,45.6482 204.9777,45.6472 C204.7717,45.6472 204.5747,45.6342 204.3797,45.6192 C200.6477,45.3292 198.8237,42.3532 198.8257,38.6262 C198.8277,35.0622 200.4857,31.6432 204.5177,31.6452 C207.1447,31.6462 208.5837,33.2312 208.8347,34.6712 L217.1137,34.6752 C216.6487,29.5632 211.8987,25.2412 204.5927,25.2381981 C196.1337,25.2342 191.1987,31.6022 191.194699,38.5132 C191.1917,45.6802 195.8917,51.6752 204.3767,51.7922 C204.4577,51.7932 204.5337,51.8032012 204.6157,51.8032012 C210.5477,51.8052 214.5167,49.2932 216.3497,45.3222 C216.3877,45.2362 216.4317,45.1552 216.4677,45.0672 C216.4907,45.0142 216.5087,44.9582 216.5307,44.9042 C216.8247,44.1642 217.0587,43.3842 217.2287,42.5662 C217.2507,42.4632 217.2737,42.3612 217.2927,42.2562 C217.4577,41.3752 217.5547,40.4582 217.5637,39.5012 C217.5737,38.6672 217.5257,37.9002 217.4557,37.1592" id="Fill-43" fill="#1E354C" mask="url(#mask-6)"></path>
                </g>
            </g>
        </g>
    </g>
</svg>