<svg height='100px' width='100px'  fill="#FF0000" xmlns="http://www.w3.org/2000/svg" xmlns:xlink="http://www.w3.org/1999/xlink" version="1.1" x="0px" y="0px" viewBox="0 0 72 72" enable-background="new 0 0 72 72" xml:space="preserve"><g><path d="M69.8,0.5H2.2c-0.9,0-1.7,0.8-1.7,1.7v67.6c0,0.9,0.8,1.7,1.7,1.7h67.6c0.9,0,1.7-0.8,1.7-1.7V2.2   C71.5,1.3,70.7,0.5,69.8,0.5z M25,4.5c1.2,0,2.1,0.9,2.1,2.1c0,1.2-0.9,2.1-2.1,2.1s-2.1-0.9-2.1-2.1C22.9,5.4,23.8,4.5,25,4.5z    M16.1,4.5c1.2,0,2.1,0.9,2.1,2.1c0,1.2-0.9,2.1-2.1,2.1S14,7.8,14,6.6C14,5.4,15,4.5,16.1,4.5z M7.3,4.5c1.2,0,2.1,0.9,2.1,2.1   c0,1.2-0.9,2.1-2.1,2.1c-1.2,0-2.1-0.9-2.1-2.1C5.2,5.4,6.1,4.5,7.3,4.5z M66.5,64.8c0,0.9-0.8,1.7-1.7,1.7H7.2   c-0.9,0-1.7-0.8-1.7-1.7V16.5c0-0.9,0.8-1.7,1.7-1.7h57.6c0.9,0,1.7,0.8,1.7,1.7V64.8z"></path><path d="M36,25L36,25C36,25,36,25,36,25C36,25,36,25,36,25L36,25C21,25.1,9,36.8,9,40.6C9,44.3,21,56,36,56.1v0c0,0,0,0,0,0   c0,0,0,0,0,0v0C51,56,63,44.3,63,40.6C63,36.8,51,25.1,36,25z M36,49.8c-5.1,0-9.3-4.1-9.3-9.3c0-5.1,4.1-9.3,9.3-9.3   c5.1,0,9.3,4.1,9.3,9.3C45.3,45.7,41.1,49.8,36,49.8z"></path></g></svg>